HIERARCHY
ROOT Hips
{
	OFFSET -14.64140 90.27770 -84.91600
	CHANNELS 6 Xposition Yposition Zposition Zrotation Xrotation Yrotation
	JOINT Spine
	{
		OFFSET 0.00000 13.20850 -1.60436
		CHANNELS 3 Zrotation Xrotation Yrotation
		JOINT Spine1
		{
			OFFSET 0.00000 8.61716 0.00000
			CHANNELS 3 Zrotation Xrotation Yrotation
			JOINT Spine2
			{
				OFFSET 0.00000 8.61717 0.00000
				CHANNELS 3 Zrotation Xrotation Yrotation
				JOINT Spine3
				{
					OFFSET 0.00000 8.61717 0.00000
					CHANNELS 3 Zrotation Xrotation Yrotation
					JOINT Neck
					{
						OFFSET 0.00000 11.07920 1.10792
						CHANNELS 3 Zrotation Xrotation Yrotation
						JOINT Neck1
						{
							OFFSET 0.00000 7.08032 0.00000
							CHANNELS 3 Zrotation Xrotation Yrotation
							JOINT Head
							{
								OFFSET 0.00000 7.08031 0.00000
								CHANNELS 3 Zrotation Xrotation Yrotation
								End site
								{
									OFFSET 0.00000 0.00000 0.00000
								}
							}
						}
					}
					JOINT RightShoulder
					{
						OFFSET -0.01000 7.91373 5.19711
						CHANNELS 3 Zrotation Xrotation Yrotation
						JOINT RightArm
						{
							OFFSET -18.41580 0.00000 0.00000
							CHANNELS 3 Zrotation Xrotation Yrotation
							JOINT RightForeArm
							{
								OFFSET -29.11090 0.00000 0.00000
								CHANNELS 3 Zrotation Xrotation Yrotation
								JOINT RightHand
								{
									OFFSET -24.65040 0.00000 0.00000
									CHANNELS 3 Zrotation Xrotation Yrotation
									JOINT RightHandThumb1
									{
										OFFSET -5.35114 -0.85590 3.97906
										CHANNELS 3 Zrotation Xrotation Yrotation
										JOINT RightHandThumb2
										{
											OFFSET -4.52789 0.00000 0.00000
											CHANNELS 3 Zrotation Xrotation Yrotation
											JOINT RightHandThumb3
											{
												OFFSET -2.46976 0.00000 0.00000
												CHANNELS 3 Zrotation Xrotation Yrotation
												End site
												{
													OFFSET 0.00000 0.00000 0.00000
												}
											}
										}
									}
									JOINT RightHandIndex1
									{
										OFFSET -14.26970 0.00000 2.88139
										CHANNELS 3 Zrotation Xrotation Yrotation
										JOINT RightHandIndex2
										{
											OFFSET -5.48836 0.00000 0.00000
											CHANNELS 3 Zrotation Xrotation Yrotation
											JOINT RightHandIndex3
											{
												OFFSET -3.01859 0.00000 0.00000
												CHANNELS 3 Zrotation Xrotation Yrotation
												End site
												{
													OFFSET 0.00000 0.00000 0.00000
												}
											}
										}
									}
									JOINT RightHandMiddle1
									{
										OFFSET -14.26970 0.00000 -0.09147
										CHANNELS 3 Zrotation Xrotation Yrotation
										JOINT RightHandMiddle2
										{
											OFFSET -6.17441 0.00000 0.00000
											CHANNELS 3 Zrotation Xrotation Yrotation
											JOINT RightHandMiddle3
											{
												OFFSET -3.56743 0.00000 0.00000
												CHANNELS 3 Zrotation Xrotation Yrotation
												End site
												{
													OFFSET 0.00000 0.00000 0.00000
												}
											}
										}
									}
									JOINT RightHandRing1
									{
										OFFSET -12.69180 0.00000 -3.06433
										CHANNELS 3 Zrotation Xrotation Yrotation
										JOINT RightHandRing2
										{
											OFFSET -5.62556 0.00000 0.00000
											CHANNELS 3 Zrotation Xrotation Yrotation
											JOINT RightHandRing3
											{
												OFFSET -3.56744 0.00000 0.00000
												CHANNELS 3 Zrotation Xrotation Yrotation
												End site
												{
													OFFSET 0.00000 0.00000 0.00000
												}
											}
										}
									}
									JOINT RightHandPinky1
									{
										OFFSET -11.11390 0.00000 -6.03719
										CHANNELS 3 Zrotation Xrotation Yrotation
										JOINT RightHandPinky2
										{
											OFFSET -4.52789 0.00000 0.00000
											CHANNELS 3 Zrotation Xrotation Yrotation
											JOINT RightHandPinky3
											{
												OFFSET -2.46976 0.00000 0.00000
												CHANNELS 3 Zrotation Xrotation Yrotation
												End site
												{
													OFFSET 0.00000 0.00000 0.00000
												}
											}
										}
									}
								}
							}
						}
					}
					JOINT LeftShoulder
					{
						OFFSET 0.01000 7.91373 5.19711
						CHANNELS 3 Zrotation Xrotation Yrotation
						JOINT LeftArm
						{
							OFFSET 18.41580 0.00000 0.00000
							CHANNELS 3 Zrotation Xrotation Yrotation
							JOINT LeftForeArm
							{
								OFFSET 29.11090 0.00000 0.00000
								CHANNELS 3 Zrotation Xrotation Yrotation
								JOINT LeftHand
								{
									OFFSET 24.65040 0.00000 0.00000
									CHANNELS 3 Zrotation Xrotation Yrotation
									JOINT LeftHandThumb1
									{
										OFFSET 5.35114 -0.85590 3.97906
										CHANNELS 3 Zrotation Xrotation Yrotation
										JOINT LeftHandThumb2
										{
											OFFSET 4.52789 0.00000 0.00000
											CHANNELS 3 Zrotation Xrotation Yrotation
											JOINT LeftHandThumb3
											{
												OFFSET 2.46977 0.00000 0.00000
												CHANNELS 3 Zrotation Xrotation Yrotation
												End site
												{
													OFFSET 0.00000 0.00000 0.00000
												}
											}
										}
									}
									JOINT LeftHandIndex1
									{
										OFFSET 14.26970 0.00000 2.88139
										CHANNELS 3 Zrotation Xrotation Yrotation
										JOINT LeftHandIndex2
										{
											OFFSET 5.48836 0.00000 0.00000
											CHANNELS 3 Zrotation Xrotation Yrotation
											JOINT LeftHandIndex3
											{
												OFFSET 3.01859 0.00000 0.00000
												CHANNELS 3 Zrotation Xrotation Yrotation
												End site
												{
													OFFSET 0.00000 0.00000 0.00000
												}
											}
										}
									}
									JOINT LeftHandMiddle1
									{
										OFFSET 14.26970 0.00000 -0.09147
										CHANNELS 3 Zrotation Xrotation Yrotation
										JOINT LeftHandMiddle2
										{
											OFFSET 6.17440 0.00000 0.00000
											CHANNELS 3 Zrotation Xrotation Yrotation
											JOINT LeftHandMiddle3
											{
												OFFSET 3.56744 0.00000 0.00000
												CHANNELS 3 Zrotation Xrotation Yrotation
												End site
												{
													OFFSET 0.00000 0.00000 0.00000
												}
											}
										}
									}
									JOINT LeftHandRing1
									{
										OFFSET 12.69180 0.00000 -3.06433
										CHANNELS 3 Zrotation Xrotation Yrotation
										JOINT LeftHandRing2
										{
											OFFSET 5.62556 0.00000 0.00000
											CHANNELS 3 Zrotation Xrotation Yrotation
											JOINT LeftHandRing3
											{
												OFFSET 3.56744 0.00000 0.00000
												CHANNELS 3 Zrotation Xrotation Yrotation
												End site
												{
													OFFSET 0.00000 0.00000 0.00000
												}
											}
										}
									}
									JOINT LeftHandPinky1
									{
										OFFSET 11.11390 0.00000 -6.03719
										CHANNELS 3 Zrotation Xrotation Yrotation
										JOINT LeftHandPinky2
										{
											OFFSET 4.52789 0.00000 0.00000
											CHANNELS 3 Zrotation Xrotation Yrotation
											JOINT LeftHandPinky3
											{
												OFFSET 2.46976 0.00000 0.00000
												CHANNELS 3 Zrotation Xrotation Yrotation
												End site
												{
													OFFSET 0.00000 0.00000 0.00000
												}
											}
										}
									}
								}
							}
						}
					}
					JOINT pCube4
					{
						OFFSET 0.00000 10.91090 1.10792
						CHANNELS 3 Zrotation Xrotation Yrotation
						End site
						{
							OFFSET 0.00000 0.00000 0.00000
						}
					}
				}
			}
		}
	}
	JOINT RightUpLeg
	{
		OFFSET -9.98441 0.00000 0.00000
		CHANNELS 3 Zrotation Xrotation Yrotation
		JOINT RightLeg
		{
			OFFSET 0.00000 -42.11790 0.00000
			CHANNELS 3 Zrotation Xrotation Yrotation
			JOINT RightFoot
			{
				OFFSET 0.00000 -45.00020 -0.00001
				CHANNELS 3 Zrotation Xrotation Yrotation
				JOINT RightForeFoot
				{
					OFFSET 0.00000 -3.74820 0.00000
					CHANNELS 3 Zrotation Xrotation Yrotation
					JOINT RightToeBase
					{
						OFFSET 0.00000 0.06325 14.43120
						CHANNELS 3 Zrotation Xrotation Yrotation
						End site
						{
							OFFSET 0.00000 0.00000 0.00000
						}
					}
				}
			}
		}
	}
	JOINT LeftUpLeg
	{
		OFFSET 9.98441 0.00000 0.00000
		CHANNELS 3 Zrotation Xrotation Yrotation
		JOINT LeftLeg
		{
			OFFSET 0.00000 -42.11800 0.00000
			CHANNELS 3 Zrotation Xrotation Yrotation
			JOINT LeftFoot
			{
				OFFSET 0.00000 -45.00070 0.00000
				CHANNELS 3 Zrotation Xrotation Yrotation
				JOINT LeftForeFoot
				{
					OFFSET 0.00000 -3.74824 0.00000
					CHANNELS 3 Zrotation Xrotation Yrotation
					JOINT LeftToeBase
					{
						OFFSET 0.00000 0.06325 14.43110
						CHANNELS 3 Zrotation Xrotation Yrotation
						End site
						{
							OFFSET 0.00000 0.00000 0.00000
						}
					}
				}
			}
		}
	}
}
MOTION
Frames: 4
Frame Time: 0.050000
0.028643061909987767 -0.022859734038541135 0.02449861735430483 -0.025652305378576726 0.04884190906763488 -0.01570426075905303 -3.1280630489839996 0.8871361839122368 -0.7674791957239698 -0.7854251885754441 3.5124725995752697 0.28204485040016286 -0.8497913355476974 -2.0240992454830775 -2.186431745730154 -0.9827990454439253 -0.07127188977019563 -0.9231007643221797 -2.036994626258116 11.617031804420872 4.796427999662739 -0.219730623571012 -0.5011403285755489 10.303203309968685 -1.6313889065407738 -15.29892489490076 0.9242250187827208 -1.9243031842544842 1.2456869716971748 -12.624263232103395 69.21880999834148 14.361181128528807 4.4962997768687 51.604759072713186 9.984718905880438 91.66800206715759 21.52957289671429 -0.16476882454653377 -4.307577703021263 4.517325571796764 -0.14481858911586387 -1.6324461776321975 0.04096330785123927 -0.01851671331419921 -56.2383641309912 0.008567144654133517 0.016169335025187175 -56.20861947426364 -38.781610967767236 0.014251843046995947 -0.03146341559301138 -0.03469143355733676 0.006063774559657864 -0.03792230535831684 0.040463678022283914 -0.040808161069051 -0.010887099060015334 -36.65203046316809 -0.0013488560584626215 0.018994196572103272 -0.002709479213233746 -0.046456014105132636 0.006935270954854485 -0.019755554390652748 -0.03622597916804576 -0.01170671227652186 -19.758212115321733 -0.04682248684723077 0.02099768675897433 0.00827399733373808 0.02550732799877898 -0.04701205769948612 -0.023222964599005042 -0.032479924819323484 -0.03384376143294931 24.044072569286474 -0.013055858637219886 0.024964624690323126 28.8180506123576 -0.011624064584146372 -0.04399621956607093 28.875913588231928 -0.028099438626255455 -0.025894292290373887 8.374022369451124 1.9500557976190285 11.630601895819074 -67.01901697985588 12.365108101947762 -20.561810317926952 -70.9892339849245 6.975032039733699 -102.00413931835857 -21.628411534474154 1.0615850151180952 -2.3226640410044515 -0.4924778324713989 0.05973005008643125 -8.090590442308551 -0.02667015732124361 -0.023475872157870777 44.55235996023587 -0.015170145094830582 0.011544459150176843 44.56755903573867 12.454275743981071 0.0011020461903493474 0.010251984808830508 -0.04889953306788484 0.042267024622277646 -0.0229158459905104 0.007248673198774218 -0.027491697330809313 0.009596288031812755 11.10962289664013 -0.0014439044375670032 -0.024186228270473033 0.021962721835181224 0.04844693472343799 0.002500669156507185 0.007227186243347682 0.04354606125658545 0.04195212346877598 4.80126275792727 0.016870301065479376 0.024345288587872806 -0.031706857401335345 -0.046201734813330356 -0.027787402708983965 -0.038204346634983684 -0.02270173487349434 0.01430207786972307 -5.5981514667344205 -0.002194767136616264 0.025308503114674127 -6.7140332489733305 0.04961883808561059 0.037362066715584744 -6.681435999055303 0.03715875763060587 -0.015777276477785467 0.012632437093523402 0.049848046294913295 -0.01125164732818529 8.049389170480822 3.4768255086575444 -19.25376620040568 -0.04197742157368231 10.390557220933365 -0.03056691158475781 -5.5816791726774495 -15.678158860884398 3.210323107075747 0.0037285383615658046 -0.035513315904218655 0.03825763951979066 0.018547761989102105 4.705369481512348 0.00966853242318081 12.438174352923358 -8.228203169060714 6.904619609319198 0.028155309867769696 46.38387724883699 -0.03925203662419973 -4.2820166856381165 -14.75744675109464 -3.826993071283002 -0.01691920752990928 -0.0144656001063258 0.026410922353580817 -0.003917911321971221 -10.762561588619345 0.023148262908173723 
-0.03706914986692291 0.007040077397246266 0.0076867236375398945 0.03376235495342326 0.030524149009841763 0.0016937048887722987 -3.1841959396345554 0.9557245243601473 -0.7222443715446936 -0.8162519060972806 3.5268261667512135 0.2834295273473122 -0.8214306355737385 -1.9752562442029262 -2.133105905762382 -1.0037515266616301 -0.11027780530547097 -0.9606290244836266 -1.9588799389042248 11.444006949077801 4.720379614603885 -0.17312133929326307 -0.5134074142658771 10.142972629385438 -1.5968494827322828 -15.382760174561314 0.8980471179379429 -1.931602881337202 1.3028111320206959 -12.589411464163078 69.6905184606238 15.101586341696873 5.125117196823411 49.517917215244765 9.660434743216786 92.75922073926874 21.636077986370847 -0.21609688149706036 -4.465244339604957 4.536161227902603 -0.14901593818081968 -1.5699602798331993 0.010752730756798615 0.025498778194422735 -56.275436090663334 0.024360314259346948 0.021599362668494812 -56.259358088777766 -38.75184715321038 0.018824543179801343 -0.0025884873572702308 0.019797526818066742 0.04873299823281606 -0.04651218016742102 0.019617229179200307 0.04962144347217539 0.016336138517662708 -36.64931415033239 -0.04730014560098308 0.019972222759451583 0.03295457300256143 0.013972023278065963 -0.016211491094258262 -0.00011016325088048693 6.36624238999401e-06 0.03994900221412239 -19.72983071230485 0.0013309153494750266 0.026933709839704133 -0.013993639672972971 -0.045562068817661956 0.04379887002836219 0.012621618231915696 -0.008549717209008212 -0.007568176547259004 24.041595599819924 -0.049931292576188224 0.023590712920444613 28.862049667197365 -0.01509528523070639 -0.019136075655133488 28.864412517887914 0.01900449403008499 -0.026160467666302784 8.245606591557738 1.938902419259108 11.528832936365376 -67.49794229705566 13.56605116147386 -20.676638102407132 -68.05601468992462 7.458321425452126 -100.92549234337939 -21.430454478943908 0.6083446666056713 -1.6732980317045694 -0.5148622346186942 0.05924956563929432 -8.165523876534989 -0.0011335128769582794 0.04807746940455483 44.535793286873215 -0.00815114340485893 0.01962465722520881 44.56686520367926 12.507459493320914 -0.03775061163334549 0.01232331951640127 0.027342283001443663 -0.00024285060892220164 -0.04953613738967155 -0.013808096388339077 0.03224113727237524 0.02075889233718741 11.063117164695083 -0.018673649251912217 0.030201457039245098 -0.001639883607206835 -0.01342503903265639 0.047443491970594207 0.01625872383826414 -0.01507869245202217 -0.023256941746587892 4.780162852554638 -0.0027702400521892423 0.027387476078663087 0.013862403597294846 0.04391626491899856 -0.019442195696944276 0.040008844100865325 -0.012280601246160344 0.02938615023066225 -5.572291188190014 -0.04992832564081808 -0.02691474340754268 -6.718253539710139 -0.04090851848111612 -0.003528005398545578 -6.743797918929384 0.001847820808201029 -0.010335482577141114 0.004873222611793138 0.03980694179415513 -0.03510206990670235 8.028375808760442 3.455291495067064 -19.245023795959742 0.00927625064053145 10.423544245340462 -0.02993346770428602 -5.625588616344769 -15.693245620123122 3.236074809209974 0.041889660708157986 0.006757189392512306 0.016662926863730342 0.0107143625735344 4.685893639048453 0.022715159237173644 12.438707423466267 -8.226898564702799 6.89675487111003 0.039555824832713915 46.38518883244988 0.004170045712119257 -4.276546203760619 -14.747711115374884 -3.8580104088169693 -0.004788350895241676 -0.01389586163305287 -0.017721746074520813 -0.00013034764660583526 -10.720112248213045 -0.03003586818359797 
0.023732459205185463 0.021022103462730923 -0.0004347662435020967 0.01561289989015691 -0.022704856318453058 -0.029552825176278247 -3.207509012665195 0.9918285560130342 -0.7647688239621482 -0.7923243278103823 3.4966796941846634 0.3370927167011651 -0.8490619253146103 -1.98453785188071 -2.2569767146175184 -0.9985751034185117 -0.07563177213178715 -0.9372697529232923 -1.882698981795925 11.38507096674428 4.610279624916766 -0.19412429435880244 -0.5746209530832261 9.964628497231159 -1.5320829806280785 -15.47245426756433 0.91203329990593 -2.138948947052116 1.2943202329605112 -12.634770555424776 69.64189754970594 15.210398464948772 5.268778368281997 47.83511509936593 9.024908130918496 94.03041365028014 22.073513213524123 -0.2150142670073899 -4.55631268564059 4.519534059835598 -0.14844566760834482 -1.5565773500707965 -0.035910113991087136 -0.020618172918268122 -56.25355482979318 -0.012666782612085082 0.00441018472179865 -56.19905212634233 -38.77740539480231 -0.03527344831626075 -0.025461795046905978 0.011737265629159761 0.04140698976426863 0.04292151273018956 -0.018061552788280182 0.039094107872024365 0.02127035741103138 -36.67470709763077 -0.02614320412900368 0.027983206123095256 0.025069866685557125 0.03154085612565489 -0.04869026679040276 -0.025390773790963432 -0.016226632079443352 0.03046734346201602 -19.720098089057615 0.04403416619884988 -0.04093367475773312 -0.022396441272425086 0.006218587684643712 -0.027898233579601358 0.00099597663146993 0.0002957893870688641 0.02520028182562696 24.01040746961143 -0.011232687693115398 -0.04284727687384339 28.855767150564823 0.017872284042082416 0.01564668084879372 28.839873936803365 0.026006641436018392 -0.01224913993077643 8.344099882706233 1.93596663040876 11.42817144597916 -67.68978612720329 13.908130362383858 -21.077183125502884 -66.34460099539221 7.367789666068816 -99.62152352188227 -21.15652521572147 -0.0357558163136248 -0.9735054346243385 -0.5147924410301044 0.027968592023250992 -8.148602522378168 -0.010536192074084589 0.00858020384359232 44.59669196564739 -0.041332809388964185 0.012177926532973893 44.54361177015334 12.50637286699014 -0.04071575144062332 -0.0077857017522375005 -0.0235154839144456 -0.004892424317994493 -0.037562866480858645 0.0406758026843695 -0.01947772366377714 0.03347029656492225 11.120545657563358 0.02000106957446797 -0.02222421647037721 -0.00366918574542838 0.04769979942576233 0.02856632461374023 0.007888497976765574 0.03484978427074843 0.0216400300854674 4.735439082101783 -0.048322710605145085 -0.017412803076145546 -0.02326780798808768 -0.04641525575670406 0.029810072769043187 -0.012007457845637476 -0.04983529581291864 0.026281858284988108 -5.644289929532733 -0.03645325935926012 0.004574664813413802 -6.746991523539759 0.03417438032423477 0.006308191211667761 -6.732296426597063 0.015223845686789167 -0.04109431206951105 -0.007301511682688558 0.013121878628420212 0.001984028133068283 7.995269053158885 3.4944041807050015 -19.18499377606681 -0.04552470472666929 10.345104691166245 -0.004212076819958541 -5.665652067885859 -15.649457513518296 3.1832057104628864 -0.02301305544230181 -0.005766750616739344 0.0233073280970599 0.03183172525901108 4.697710690563438 0.01389324327866741 12.493909747726718 -8.22607290936434 6.915452728564685 0.0037174940189318153 46.33407337588148 -0.0070182699676719276 -4.294852719380136 -14.725050457277714 -3.8003515130893626 0.0369965572701996 -0.03786843482454848 -0.049246377291952935 0.005242298449634785 -10.747589844981652 -0.040870788858345095 
-0.03380252539371906 -0.02959434491578249 -0.04836668748976632 -0.012806817698028095 -0.02320416870740344 0.03634202011827673 -3.13568356889945 0.8073140403341416 -0.7943204851137223 -0.7732644833162888 3.46293865119807 0.31896532819748263 -0.8156951072220193 -2.0177927942739853 -2.4396215202010216 -0.9775112698851828 -0.18423665466036873 -0.9273633295638973 -1.8325001234388996 11.466489322709508 4.5260469741006535 -0.12691633434789198 -0.5404088245750184 9.94136930718699 -1.4446132618284362 -15.478087611606819 0.8506598874439016 -2.3940935230583147 1.3850538627057647 -12.759737423771638 68.99759237793539 13.999647605500979 5.401596207239573 47.694848367519995 8.338218019527911 95.2189572172975 22.66239961233717 -0.3035493280978285 -4.5155404902093474 4.554315265130192 -0.13297426742444832 -1.622134609993544 -0.022052636985665893 0.002602631314919326 -56.22956591498383 -0.028143668899705376 0.020986158746799356 -56.2287285039697 -38.76862983458473 0.036751059381541364 -0.04861774224224357 -0.029010021873678814 0.021096518497824884 -0.018383990688213687 0.04113202276168123 0.013308941859798945 0.007579368696432734 -36.72790937625557 0.01354942965992658 -0.028039869447019094 0.007166327703156439 -0.027729955350801725 0.03166281315059652 0.013131726229216021 0.014408149492014162 -0.003851037259389042 -19.740589704378124 -0.01516712530990948 -0.0215935940006348 0.008465179066313843 -0.01937870542398778 0.04882574808518984 -0.04725773586213399 -0.017172999030429317 0.003631116338291123 24.103121695967232 -0.0329874022512793 -0.00553782580094522 28.862061631412033 -0.04749118271643617 -0.024519389224582754 28.835008381846485 0.011599013726323826 -0.014926186955367805 8.56168182914945 1.9891429725080965 11.365936211139458 -67.66727860870286 13.544391003071551 -21.65949261908769 -67.19658124587666 7.141882172487231 -99.18993481576699 -21.212331071493935 -0.7828447150087787 -0.36195484773947884 -0.5180151077060252 0.07697439612353033 -8.165954092536762 0.009980439571545062 0.005807296148620713 44.546950181008015 -0.00754192228201734 0.025082595223900706 44.54528866844772 12.416651172946642 0.02690336630856686 -0.034826115222540484 -0.03598072518427852 -0.019293423660258963 0.028887576318733964 -0.010920641035782174 -0.049005687327493344 0.00475078600771244 11.080750701163739 -0.02401770137314589 0.009630845735909641 -0.0027031171343455647 -0.025692735313439328 0.03210590042651969 0.01471725930128577 -0.019255248936582973 -0.016883757472529015 4.793855806140332 -0.048359261871783014 0.040963205890365124 0.03681554260383487 0.011767807883851247 0.02239153515050195 0.009249421427785195 -0.049642787406155485 0.01598802014607182 -5.601837703017161 0.024963263702135294 0.039963536583934145 -6.722360933695645 0.04477052803072269 0.0026177406517411328 -6.723823881099618 -0.014690015252186642 0.0149737618493211 -0.03342138305944599 0.04431374805299086 -0.039398181281828835 8.011967580352302 3.509974046978534 -19.172028443237554 -0.014541086656549554 10.359577304653575 -0.007917780351481312 -5.6447020154838965 -15.671720640073369 3.184930011934718 0.024261055450743307 -0.009903181269200017 -0.007087380515672496 -0.005934384430792247 4.688185371984767 0.04308787557178151 12.432143084108201 -8.220413623060276 6.922094106705114 -0.03932998085436513 46.41083694624753 -0.023348335534483025 -4.287870351013259 -14.753965493467643 -3.8091934438289496 0.022256727300753388 -0.0002581739658909571 0.0011717159040688266 -0.006753075264095782 -10.730209459540285 0.007189180422279584 
